<svg xmlns="http://www.w3.org/2000/svg" version="1.1" xmlns:xlink="http://www.w3.org/1999/xlink" xmlns:svgjs="http://svgjs.dev/svgjs" width="2000" height="2250" viewBox="0 0 2000 2250"><g transform="matrix(1,0,0,1,0.00014687500004129106,0)"><svg viewBox="0 0 320 360" data-background-color="#ffffff" preserveAspectRatio="xMidYMid meet" height="2250" width="2000" xmlns="http://www.w3.org/2000/svg" xmlns:xlink="http://www.w3.org/1999/xlink"><g id="tight-bounds" transform="matrix(1,0,0,1,0.000023499999997511622,0)"><svg viewBox="0 0 320 360" height="360" width="320"><g><svg></svg></g><g><svg viewBox="0 0 320 360" height="360" width="320"><g><path transform="translate(-74.99272,-51.79039) scale(4.65793,4.65793)" d="M20.6 59.9l0.8 1-0.4-1.3c-0.1-0.6-0.8 0.1-0.4 0.3M21.5 59.3c0.3 0.5 0.6 1 0.6 1.5 0 0.7 0.6 1 1.1 1.2-0.7-0.8-1.1-3-1.7-2.7M59.9 16.9c1.7 0 3.3-0.2 5.1 0.2 4.4 1.1 8.1 3.3 10.6 6.4l7 11.2c0.3 2.8 0.9 5.9 0.8 9.3 0.7 0 0.6-1 1.4-1.2-0.8 2-1.2 4.5-1.4 7.4-0.5-1.6 0-4 0.1-5.3-0.7 1.1-1.1 0.3-1.1-0.2 0.1-0.8-0.3-0.7-0.6-1-1.1-1-1.8-2.1-2.6-3.8 0.5-1.3 0.6-3.2-1-4.2-0.5-0.3-1.1-0.8-1.4-1.6-0.4-1.1-1.1-2.4-0.9-4.1 0.1-0.5-1.5 1.1-2.4 0.4-3.9-2.7-7.8-5.8-12.5-8.4-2.5 0-4.3-0.9-5.2-2-0.8-1-0.2-2.3 1-2.4 0.7 0 1.5-0.2 2.1 0.2 0.1-0.4 0.5-0.9 1-0.9M50 14.6l0.2 0.1c1 0.2 1.5 1.6 2.6 1.1 0 0.7 0.1 1.4-0.1 1.9-0.3 0.8-1.2 0.8-1.9 0.8-6.7-0.4-10.6 2.4-14.7 4.8-1.1 0.7-2.3 1.2-3.2 2.1-4.3 4-9 7.7-10.1 15.1l-0.9 8.2c-0.1 0.9-1.1 1.8-0.9 2.9l0.7 4.9c-0.7-0.7-1.1 0.2-0.9 0.6 0.1 0.3 0.5 1.3 1.1 0.4 0.8 1.5 1.6 4.4 2.7 5.7 3.4 4 7.8 7.6 11.4 11.2 0.9-0.2 1.6-0.2 1.8-0.8 0.3 0.6-0.3 1.2-0.8 1.3 1.6 1 3.4 1.9 5.8 2.1 3.1 0.2 6 0.7 8.7 1.4 1.4-0.4 2.8-0.6 4.3-0.7 0.5 0 0.8-0.8 1.4-1l0.1-1c0.6 0.9 0.5-0.3 0.1-0.9 0.7 0.6 0.9 1.1 1.2 1.5 0-0.3 0.8-1.4 0.8-0.1l0.2-1.3c0.3-0.2 0.4 1.1 0.7 0.2 0.3-0.9 0.9-0.2 1.5-0.5-0.2 0.4-0.1 1.2 0.6 0.7l0.8-0.7c0.5 1.2 1.3 0.7 1.7 0.5 4.4-2.8 8.8-6.1 13-9.4l-0.1 1.3 0.5-1.6c0.5 0.5 0.9 0.1 1.1-0.2 0.6-1 1.4-2 2.7-2.9-1.6 4.3-3.5 7.7-5.9 10.5l-1 1.2c0 0.7-0.2 1.6-1 1.7-0.4 0.1-1.2-0.2-1.8 0.4-0.3 0.4 0.7 1.2-0.1 0.6-0.7-0.5-1.4 0-2.2 0.2-0.6 0.2 0.4 0.8 0.6 1.2 0.2 0.4 0.4 0.8 0.3 1.3l-1.1-1.2c-1.3 0.7-2.1 2-3.2 3-0.5 0.4-0.3 1.1-0.3 1.7-0.7 0-1.5-0.2-1.9 0.2-0.3 0.4-0.2 1-0.2 1.6-1-0.1-1.1-1.6-2-1.3-0.9 0.2-1.9 0.3-2.7 0.8 0.6 1.2-1 0.5-0.8 0.7-1.5-0.9-2.8-1.6-4.4-1-3.4-1.1-7.6-0.6-10.7-0.2 0-0.5 0.1-1-0.1-1.1-0.2 0.5-0.8 0.3-0.7 0.3-1.9-1.3-3.8-2.1-5.8-3.2-1.8 0.2-3.5-0.7-4-1.2-1.4-1.3-3-0.6-4.3-0.9-2.8-0.7-3.8-3.6-4.1-5.6-0.2-1-1-1.4-1.3-1.3-1.3-4.2-3.3-8-4.9-11.9-0.4-1-0.3-2-0.3-3.1 0.5 0.2 1 0.1 0.9-0.6-0.5-3.3-1.7-5.8-3-8.2 0.7-3.4 0.8-7.4 2.4-10.4 1.4-2.7 4-4.1 5.8-6.4 0.6-0.8 0.6-1.9 1.2-2.6 2-2 4-4.1 6.2-5.9 1-0.8 2.2 0 3.7-0.3 0.5-1.8 2.5-3.4 4.4-2.9 0.8 0.2 2.4-1.9 2.9-2.1 0.8-0.3 0.4 0.8 0.4 1.5 1.9-1.5 4.5-2.3 6.9-3.2" fill="#ffffff" fill-rule="nonzero" stroke="none" stroke-width="1" stroke-linecap="butt" stroke-linejoin="miter" stroke-miterlimit="10" stroke-dasharray="" stroke-dashoffset="0" font-family="none" font-weight="none" font-size="none" text-anchor="none" style="mix-blend-mode: normal" data-fill-palette-color="tertiary"></path></g><g transform="matrix(1,0,0,1,64,145.64371249904696)"><svg viewBox="0 0 192 68.71257500190609" height="68.71257500190609" width="192"><g><svg viewBox="0 0 192 68.71257500190609" height="68.71257500190609" width="192"><g><svg viewBox="0 0 192 68.71257500190609" height="68.71257500190609" width="192"><g transform="matrix(1,0,0,1,0,41.5311506387108)"><svg viewBox="0 0 192 27.181424363195287" height="27.181424363195287" width="192"><g id="textblocktransform"><svg viewBox="0 0 192 27.181424363195287" height="27.181424363195287" width="192" id="textblock"><g><svg viewBox="0 0 192 27.181424363195287" height="27.181424363195287" width="192"><g transform="matrix(1,0,0,1,0,0)"><svg width="192" viewBox="3.65 -38.25 288.51000000000005 40.85" height="27.181424363195287" data-palette-color="#919591"><path d="M18.5 1.15Q17.85 1.15 17.63 0.83 17.4 0.5 17.4-0.25L17.4-0.25 17.4-4.8Q17.4-8.2 17.2-13.05L17.2-13.05Q17.15-13.95 17.15-15.65L17.15-15.65Q17-19.2 17-21.25L17-21.25 17.05-24.05Q17.1-25.3 17.1-26.85L17.1-26.85Q17.1-28.2 17.05-29.25L17.05-29.25Q17-30 16.98-30.5 16.95-31 16.9-31.3L16.9-31.3 16.8-30.95Q16.25-27.3 15.15-21.35 14.05-15.4 13.35-11.8L13.35-11.8Q12.65-8.6 12.45-7.25L12.45-7.25Q12.35-6.6 12.03-6.2 11.7-5.8 11.3-5.8L11.3-5.8Q10.9-5.8 10.6-6.2 10.3-6.6 10.25-7.35L10.25-7.35Q9.9-9.75 7.7-20.75 5.5-31.75 5.25-32.15L5.25-32.15Q5.1-27.65 5.1-22.05L5.1-22.05Q5.1-17.65 5.15-14.1L5.15-14.1Q5.2-10.55 5.2-6.15L5.2-6.15Q5.2-5.4 5.35-3.8L5.35-3.8 5.45-1.4Q5.45-0.45 5.1-0.1L5.1-0.1Q3.65-0.1 3.65-2.7L3.65-2.7 3.65-11.05 3.7-16.1Q3.75-18.35 3.75-21.2L3.75-21.2Q3.75-24.5 3.8-27.1L3.8-27.1 3.9-33.05 3.9-37.45Q3.9-37.7 4.13-37.9 4.35-38.1 4.6-38.1L4.6-38.1Q5-38.1 5.15-37.7L5.15-37.7Q5.6-36.2 7.4-28.85 9.2-21.5 10.1-17.5L10.1-17.5Q10.55-15.15 11.55-9.2L11.55-9.2 11.9-11.15Q12.05-12.05 12.35-13.65L12.35-13.65Q12.95-17.55 13.1-18.05L13.1-18.05 15.4-30.3 15.85-32.9 16.4-35.7 16.65-37.2Q16.7-37.7 16.95-37.98 17.2-38.25 17.5-38.25L17.5-38.25Q17.75-38.25 17.95-38 18.15-37.75 18.15-37.3L18.15-37.3 18.15-32.35Q18.15-28.6 18.6-21L18.6-21Q18.95-14 18.95-9.75L18.95-9.75Q18.95-8.4 19.1-5.6L19.1-5.6Q19.2-2 19.2-0.6L19.2-0.6Q19.2 0.5 19.05 0.85L19.05 0.85Q18.85 1.15 18.5 1.15L18.5 1.15ZM31.75 0.75Q30.95 0.75 30.02 0.23 29.1-0.3 28.5-1L28.5-1Q27.8-1.9 27.4-6.05 27-10.2 26.9-15.55L26.9-15.55Q26.9-16.75 26.85-17.35L26.85-17.35Q26.75-29.9 26.45-32.2L26.45-32.2 26.75-32.9Q27.9-32.75 27.9-30.15L27.9-30.15 28.05-16.9Q28.05-15.5 28.3-11.6L28.3-11.6Q28.6-8.1 28.6-6.3L28.6-6.3Q28.6-0.6 32.35-0.6L32.35-0.6Q34.65-0.6 35.3-11.1L35.3-11.1 35.35-12.1Q35.7-25.85 35.7-32.45L35.7-32.45 35.65-32.9Q35.6-33.1 35.6-33.35L35.6-33.35Q35.6-33.9 36.45-33.9L36.45-33.9Q37.05-33.9 37.2-33.6L37.2-33.6Q37.3-33.1 37.3-31.85L37.3-31.85Q37.3-28.05 37-26.75L37-26.75 37.05-26.45Q37.05-25.8 36.9-24.45L36.9-24.45 36.8-22.45 36.8-21.95Q36.85-21.75 36.85-21.45L36.85-21.45Q36.75-20.25 36.75-19.15L36.75-19.15Q36.7-18.8 36.7-18.05L36.7-18.05Q36.6-13.3 36.5-9.8L36.5-9.8Q36.35-5.45 35.3-2.45L35.3-2.45Q34.2 0.75 31.75 0.75L31.75 0.75ZM53.8 0.55Q53.8 0.05 52.3 0.05L52.3 0.05Q52.05-9.2 52.05-13.35L52.05-13.35 51.9-13.55 52.1-14Q52.1-14.9 51.9-15.85L51.9-15.85 51.15-16.05Q50.7-15.9 50.15-15.9L50.15-15.9Q49.75-15.9 48.5-16.15L48.5-16.15Q47.65-16.4 46.95-16.4L46.95-16.4 46.4-16.2Q46.4-14.45 46.35-13.05L46.35-13.05Q46.3-11.65 46.3-9.9L46.3-9.9 46.4-9.7Q46.4-8.3 46.55-5.5L46.55-5.5Q46.7-2.75 46.7-1.35L46.7-1.35Q46.7-0.8 46.5-0.43 46.3-0.05 45.9-0.05L45.9-0.05Q44.8-0.05 44.8-3.05L44.8-3.05Q44.8-5.6 44.85-7.65L44.85-7.65 44.9-12.2Q44.9-16.75 44.75-17.1L44.75-17.1Q45-17.6 45-20.4L45-20.4Q45-22.8 44.8-26.25L44.8-26.25 44.7-28.2 44.6-32.1Q44.6-32.45 44.85-32.75 45.1-33.05 45.45-33.05L45.45-33.05Q46.45-33.05 46.45-30.15L46.45-30.15Q46.45-26.75 46.4-24L46.4-24Q46.3-21.25 46.3-17.95L46.3-17.95Q46.3-17.35 50.1-17.35L50.1-17.35 50.3-17.35Q51.25-17.35 51.67-17.73 52.1-18.1 52.1-19L52.1-19Q52.1-21.65 51.75-25.9L51.75-25.9Q51.45-30.5 51.45-32.8L51.45-32.8Q51.45-33.1 51.7-33.33 51.95-33.55 52.3-33.55L52.3-33.55 52.75-33.4Q53.1-33.35 53.2-33.25L53.2-33.25Q53.2-29.35 53.5-21.6L53.5-21.6Q53.8-13.8 53.8-9.9L53.8-9.9Q53.8-4 54.15 0L54.15 0 53.8 0.55ZM50.65-17.95L50.65-18.05 50.75-17.95 50.65-17.95ZM70.99 0.45Q70.24 0.45 70.04 0.28 69.84 0.1 69.74-0.65L69.74-0.65Q69.29-4.3 69.19-5.2L69.19-5.2 68.94-7.2Q67.84-7.45 66.44-7.45L66.44-7.45 64.64-7.55Q63.44-7.7 62.89-7.7L62.89-7.7Q62.59-7.7 62.54-7.45L62.54-7.45Q62.54-7.3 62.49-7.3L62.49-7.3 62.39-6.3Q62.34-5.4 61.84-2.7L61.84-2.7Q61.59-1.35 61.24-0.6L61.24-0.6Q60.84 0.25 60.49 0.25L60.49 0.25Q60.19 0.25 59.84-0.03 59.49-0.3 59.49-0.6L59.49-0.6 59.54-0.75 59.59-0.9Q60.49-4.45 61.09-7.95L61.09-7.95 61.69-11.05 62.29-14.85Q62.29-14.85 62.84-18.15L62.84-18.15Q63.09-19.5 63.74-22.5L63.74-22.5Q64.44-25.9 64.59-27.15L64.59-27.15Q64.64-27.3 64.79-29L64.79-29Q64.99-30.9 65.14-31.8L65.14-31.8Q65.29-33.1 65.44-33.3L65.44-33.3 65.79-33.3Q65.94-33.25 66.14-33.25L66.14-33.25Q66.74-33.25 67.04-33.55L67.04-33.55Q67.39-33.55 67.67-33.33 67.94-33.1 67.94-32.8L67.94-32.8Q67.94-30.4 68.29-27.3L68.29-27.3Q68.49-25.7 68.59-24.65L68.59-24.65Q69.14-18.2 71.39-0.45L71.39-0.45 71.39-0.3Q71.39 0.2 70.99 0.45L70.99 0.45ZM68.19-8.55L68.69-8.55Q68.19-15.75 66.79-29.8L66.79-29.8 64.09-16.45Q62.94-10.7 62.94-9.2L62.94-9.2Q62.94-8.95 64.84-8.75 66.74-8.55 68.19-8.55L68.19-8.55ZM96.54 2.6Q95.54 2.6 95.54-0.6L95.54-0.6 95.54-3.9Q95.54-11.1 95.24-15.15L95.24-15.15 95.09-17Q94.89-18.25 94.89-19.2L94.89-19.2Q94.89-20.9 94.99-22.3L94.99-22.3 95.09-25.4Q95.09-26.95 94.89-27.75L94.89-27.75Q93.89-27.05 88.84-6.7L88.84-6.7 88.79-5.95Q88.64-4.7 88.39-3.95L88.39-3.95Q88.24-3.4 87.97-3.1 87.69-2.8 87.34-2.8L87.34-2.8Q86.54-2.8 86.19-3.2 85.84-3.6 85.84-4.45L85.84-4.45Q85.84-5.8 84.57-11.45 83.29-17.1 81.82-22.3 80.34-27.5 79.79-28.05L79.79-28.05Q79.74-26.3 79.39-19.8L79.39-19.8Q78.69-8.3 78.69-1.7L78.69-1.7 78.74 0.3Q78.54 0.95 77.69 0.95L77.69 0.95Q77.54 0.95 77.19 0.68 76.84 0.4 76.84 0.25L76.84 0.25Q76.84-4.25 77.64-15.55L77.64-15.55Q78.39-26.05 78.39-31.3L78.39-31.3Q78.39-31.55 78.29-31.8L78.29-31.8Q78.14-32.1 78.14-32.25L78.14-32.25Q78.14-33 79.44-33L79.44-33Q80.29-33 80.44-32.25L80.44-32.25Q80.64-31.25 80.64-30.75L80.64-30.75 80.69-30.15Q80.94-28.85 82.14-26.15L82.14-26.15Q83.09-24 83.59-22.4L83.59-22.4Q83.89-21.2 84.14-20.45L84.14-20.45Q84.94-17.55 85.19-16.15L85.19-16.15 85.84-14.85Q85.99-14.1 86.44-12.4L86.44-12.4Q86.89-10.5 87.09-9.3 87.29-8.1 87.29-7L87.29-7Q87.84-7.85 90.42-17.23 92.99-26.6 93.44-29.2L93.44-29.2Q93.49-29.3 93.52-29.48 93.54-29.65 93.59-29.95L93.59-29.95Q93.69-30.6 94.04-31.9L94.04-31.9Q94.44-32.9 95.24-32.9L95.24-32.9Q95.59-32.9 96.04-32.6 96.49-32.3 96.49-32L96.49-32Q96.49-11.15 97.14-9.95L97.14-9.95 97.14-7.35Q97.09-6.2 97.09-4.7L97.09-4.7Q97.09-1.5 97.44 0.1L97.44 0.1Q97.49 0.15 97.52 0.25 97.54 0.35 97.59 0.5L97.59 0.5Q97.64 0.7 97.64 0.95L97.64 0.95Q97.64 1.5 97.32 2.05 96.99 2.6 96.54 2.6L96.54 2.6ZM94.89-27.95L94.89-28.05 94.84-28.05 94.74-28 94.89-27.95ZM124.89 2.6Q123.89 2.6 123.89-0.6L123.89-0.6 123.89-3.9Q123.89-11.1 123.59-15.15L123.59-15.15 123.44-17Q123.24-18.25 123.24-19.2L123.24-19.2Q123.24-20.9 123.34-22.3L123.34-22.3 123.44-25.4Q123.44-26.95 123.24-27.75L123.24-27.75Q122.24-27.05 117.19-6.7L117.19-6.7 117.14-5.95Q116.99-4.7 116.74-3.95L116.74-3.95Q116.59-3.4 116.31-3.1 116.04-2.8 115.69-2.8L115.69-2.8Q114.89-2.8 114.54-3.2 114.19-3.6 114.19-4.45L114.19-4.45Q114.19-5.8 112.91-11.45 111.64-17.1 110.16-22.3 108.69-27.5 108.14-28.05L108.14-28.05Q108.09-26.3 107.74-19.8L107.74-19.8Q107.04-8.3 107.04-1.7L107.04-1.7 107.09 0.3Q106.89 0.95 106.04 0.95L106.04 0.95Q105.89 0.95 105.54 0.68 105.19 0.4 105.19 0.25L105.19 0.25Q105.19-4.25 105.99-15.55L105.99-15.55Q106.74-26.05 106.74-31.3L106.74-31.3Q106.74-31.55 106.64-31.8L106.64-31.8Q106.49-32.1 106.49-32.25L106.49-32.25Q106.49-33 107.79-33L107.79-33Q108.64-33 108.79-32.25L108.79-32.25Q108.99-31.25 108.99-30.75L108.99-30.75 109.04-30.15Q109.29-28.85 110.49-26.15L110.49-26.15Q111.44-24 111.94-22.4L111.94-22.4Q112.24-21.2 112.49-20.45L112.49-20.45Q113.29-17.55 113.54-16.15L113.54-16.15 114.19-14.85Q114.34-14.1 114.79-12.4L114.79-12.4Q115.24-10.5 115.44-9.3 115.64-8.1 115.64-7L115.64-7Q116.19-7.85 118.76-17.23 121.34-26.6 121.79-29.2L121.79-29.2Q121.84-29.3 121.86-29.48 121.89-29.65 121.94-29.95L121.94-29.95Q122.04-30.6 122.39-31.9L122.39-31.9Q122.79-32.9 123.59-32.9L123.59-32.9Q123.94-32.9 124.39-32.6 124.84-32.3 124.84-32L124.84-32Q124.84-11.15 125.49-9.95L125.49-9.95 125.49-7.35Q125.44-6.2 125.44-4.7L125.44-4.7Q125.44-1.5 125.79 0.1L125.79 0.1Q125.84 0.15 125.86 0.25 125.89 0.35 125.94 0.5L125.94 0.5Q125.99 0.7 125.99 0.95L125.99 0.95Q125.99 1.5 125.66 2.05 125.34 2.6 124.89 2.6L124.89 2.6ZM123.24-27.95L123.24-28.05 123.19-28.05 123.09-28 123.24-27.95ZM143.34 0.45Q142.59 0.45 142.39 0.28 142.19 0.1 142.09-0.65L142.09-0.65Q141.64-4.3 141.54-5.2L141.54-5.2 141.29-7.2Q140.19-7.45 138.79-7.45L138.79-7.45 136.99-7.55Q135.79-7.7 135.24-7.7L135.24-7.7Q134.94-7.7 134.89-7.45L134.89-7.45Q134.89-7.3 134.84-7.3L134.84-7.3 134.74-6.3Q134.69-5.4 134.19-2.7L134.19-2.7Q133.94-1.35 133.59-0.6L133.59-0.6Q133.19 0.25 132.84 0.25L132.84 0.25Q132.54 0.25 132.19-0.03 131.84-0.3 131.84-0.6L131.84-0.6 131.89-0.75 131.94-0.9Q132.84-4.45 133.44-7.95L133.44-7.95 134.04-11.05 134.64-14.85Q134.64-14.85 135.19-18.15L135.19-18.15Q135.44-19.5 136.09-22.5L136.09-22.5Q136.79-25.9 136.94-27.15L136.94-27.15Q136.99-27.3 137.14-29L137.14-29Q137.34-30.9 137.49-31.8L137.49-31.8Q137.64-33.1 137.79-33.3L137.79-33.3 138.14-33.3Q138.29-33.25 138.49-33.25L138.49-33.25Q139.09-33.25 139.39-33.55L139.39-33.55Q139.74-33.55 140.01-33.33 140.29-33.1 140.29-32.8L140.29-32.8Q140.29-30.4 140.64-27.3L140.64-27.3Q140.84-25.7 140.94-24.65L140.94-24.65Q141.49-18.2 143.74-0.45L143.74-0.45 143.74-0.3Q143.74 0.2 143.34 0.45L143.34 0.45ZM140.54-8.55L141.04-8.55Q140.54-15.75 139.14-29.8L139.14-29.8 136.44-16.45Q135.29-10.7 135.29-9.2L135.29-9.2Q135.29-8.95 137.19-8.75 139.09-8.55 140.54-8.55L140.54-8.55ZM150.08 0.25Q149.68 0.25 149.68-1.1L149.68-1.1Q149.48-4.55 149.48-9.8L149.48-9.8Q149.48-13.1 149.53-15.7L149.53-15.7 149.58-21.6Q149.58-25.4 149.38-31L149.38-31Q148.93-31.4 148.93-32L148.93-32Q148.93-32.35 149.36-32.73 149.78-33.1 150.13-33.1L150.13-33.1Q150.53-33.1 150.88-32.7L150.88-32.7 151.43-32.25Q151.73-32.1 152.58-31.95L152.58-31.95Q153.43-31.8 153.78-31.65L153.78-31.65Q154.53-31.25 155.78-30.1L155.78-30.1Q156.98-28.9 157.43-28.6L157.43-28.6 157.38-28.5Q157.43-28.2 158.13-27.2L158.13-27.2Q158.68-26.45 159.03-25.8L159.03-25.8Q159.83-23.5 159.83-19.85L159.83-19.85Q159.83-19.2 159.78-18.7L159.78-18.7 159.78-17.5 159.78-17.1 159.73-16.6Q159.73-15.65 160.03-15.1L160.03-15.1Q159.73-13.5 159.28-9.05L159.28-9.05Q159.13-7.75 158.78-6.3 158.43-4.85 157.93-3.9L157.93-3.9Q156.63-1.45 153.58 0.25L153.58 0.25 150.08 0.25ZM151.83-1.2L153.38-1.2Q153.73-1.6 154.03-1.85L154.03-1.85Q154.03-1.85 154.38-2.1L154.38-2.1 154.78-2.45Q158.28-5.6 158.28-14.45L158.28-14.45 158.28-15.4Q158.23-15.8 158.23-16.25L158.23-16.25 158.03-21.3Q157.88-24.2 156.28-27.3L156.28-27.3Q155.53-28.85 154.26-29.83 152.98-30.8 151.58-30.8L151.58-30.8Q150.98-30.8 150.98-21.55L150.98-21.55Q150.98-10.85 151.58-2.9L151.58-2.9 151.53-1.95 151.73-1.85 151.83-1.2ZM184.63 0Q184.23 0 183.95-0.25 183.68-0.5 183.68-0.85L183.68-0.85 183.68-7.4Q183.68-8 181.13-8.5 178.58-9 176.93-9L176.93-9Q176.83-9 176.6-8.25 176.38-7.5 176.28-7.15L176.28-7.15Q175.63-4.55 174.98-1.6L174.98-1.6 174.73-0.5Q174.63-0.1 174.23-0.1L174.23-0.1Q173.83-0.1 173.5-0.35 173.18-0.6 173.18-0.95L173.18-0.95 173.23-1.05 173.23-1.1 173.78-3.6Q174.38-5.95 174.83-8.2L174.83-8.2Q175.33-10.75 175.58-11.5L175.58-11.5Q175.98-13.15 177.18-19.75L177.18-19.75 177.48-21.4Q178.78-29.1 179.28-31.1L179.28-31.1Q179.53-32.3 180.18-34.65L180.18-34.65Q180.43-35.65 180.88-36.65L180.88-36.65Q181.33-37.5 181.63-37.5L181.63-37.5Q182.43-37.5 182.78-37L182.78-37Q183.03-36.55 183.55-32.05 184.08-27.55 184.48-22.95L184.48-22.95 185.13-14.65Q185.13-12.5 185.43-8.15L185.43-8.15Q185.73-3.75 185.73-1.6L185.73-1.6 185.73-1.4Q185.73-0.85 185.58-0.4L185.58-0.4Q185.38 0 184.63 0L184.63 0ZM182.63-9.65Q183.63-9.65 183.63-10.15L183.63-10.15Q183.63-13.25 183.28-18.63 182.93-24 182.53-28.1L182.53-28.1Q182.43-29.85 182.13-31.95L182.13-31.95 181.93-33.9Q181.93-33.85 181.83-34.45L181.83-34.45 181.73-35.05Q181.33-33.95 180.95-32 180.58-30.05 180.18-27.4L180.18-27.4Q178.98-19.95 178.13-16.2L178.13-16.2 177.68-14.5Q176.93-12 176.93-10.7L176.93-10.7 176.93-10.4Q179.13-9.7 181.98-9.7L181.98-9.7 182.28-9.7Q182.43-9.65 182.63-9.65L182.63-9.65ZM193.63 0.65Q192.93 0.65 192.78-0.5L192.78-0.5Q192.88-0.8 192.88-2.15L192.88-2.15Q192.88-6.75 193.03-15.8L193.03-15.8Q193.18-24.8 193.18-28.8L193.18-28.8 193.28-30.6 193.43-32.1Q193.43-32.45 193.78-32.45L193.78-32.45Q194.03-32.45 194.48-32.3L194.48-32.3 194.63-32.25Q194.63-31.15 194.58-30.25L194.58-30.25 194.58-28.3 194.58-22.85Q194.63-20.45 194.63-17.4L194.63-17.4Q194.58-17.15 194.58-16.3L194.58-16.3 194.53-15.25Q194.48-14.25 194.48-13.2L194.48-13.2Q194.48-12.05 194.53-11.1L194.53-11.1 194.58-8.95 194.43-8.55 194.48-8.6Q194.48-8.45 194.43-8.4L194.43-8.4 194.43-8.2Q194.43-7.8 194.58-7.5L194.58-7.5 194.43-2.7 194.43-2.4Q194.43-1.55 194.48-1.4L194.48-1.4Q194.48-1.15 194.73-1.15L194.73-1.15 197.33-1.05Q198.48-1.05 198.9-1.03 199.33-1 199.43-1L199.43-1 199.58-1Q199.83-1 200.08-0.73 200.33-0.45 200.33-0.15L200.33-0.15Q200.33 0.45 199.53 0.5L199.53 0.5Q198.68 0.45 195.38 0.45L195.38 0.45 195.48 0.5Q194.98 0.5 194.53 0.55L194.53 0.55Q194.13 0.65 193.63 0.65L193.63 0.65ZM207.87 0Q206.72 0 206.52-0.5L206.52-0.5Q206.27-0.5 206.12-0.45L206.12-0.45 205.72-0.45Q204.62-0.45 204.32-0.95L204.32-0.95Q204.32-1.3 204.72-1.55L204.72-1.55 204.97-1.8 206.42-1.8 206.62-2 206.72-2.45 206.77-3.05Q206.77-6.1 206.62-8.5L206.62-8.5 206.52-10.35 206.42-14Q206.42-15.95 206.57-19.85L206.57-19.85 206.67-25.65Q206.67-29.45 206.42-31.45L206.42-31.45Q205.97-31.6 204.92-31.6L204.92-31.6 204.37-31.55Q204.07-31.5 203.72-31.5L203.72-31.5Q202.77-31.5 202.77-32.35L202.77-32.35Q202.77-32.55 203.22-32.75 203.67-32.95 203.97-32.95L203.97-32.95Q205.87-32.95 207.77-32.75L207.77-32.75Q208.92-32.7 210.07-32.3L210.07-32.3Q210.97-32 210.97-31.45L210.97-31.45Q210.97-31.35 210.82-31.05L210.82-31.05 209.67-30.95Q209.32-31.25 208.22-31.25L208.22-31.25 207.97-31.1Q208.12-30.65 208.12-28.45L208.12-28.45Q208.12-25.15 208.07-22.5L208.07-22.5 207.97-16.55Q207.97-14.3 208.17-11.1L208.17-11.1Q208.32-7.45 208.32-5.6L208.32-5.6 208.32-4.95Q208.27-4.6 208.27-4.05L208.27-4.05Q208.27-2.9 208.42-2.65L208.42-2.65 208.37-2.55Q208.37-2.05 209.47-2.05L209.47-2.05Q209.92-2.05 210.22-2.1L210.22-2.1 210.97-2.1Q212.42-2.1 212.42-1.4L212.42-1.4Q212.42-0.95 212.12-0.68 211.82-0.4 211.32-0.4L211.32-0.4Q210.87-0.4 210.52-0.5L210.52-0.5Q210.12-0.55 209.67-0.55L209.67-0.55Q209.37-0.55 208.77-0.3L208.77-0.3Q208.17 0 207.87 0L207.87 0ZM235.12 0Q234.72 0 234.44-0.25 234.17-0.5 234.17-0.85L234.17-0.85 234.17-7.4Q234.17-8 231.62-8.5 229.07-9 227.42-9L227.42-9Q227.32-9 227.09-8.25 226.87-7.5 226.77-7.15L226.77-7.15Q226.12-4.55 225.47-1.6L225.47-1.6 225.22-0.5Q225.12-0.1 224.72-0.1L224.72-0.1Q224.32-0.1 223.99-0.35 223.67-0.6 223.67-0.95L223.67-0.95 223.72-1.05 223.72-1.1 224.27-3.6Q224.87-5.95 225.32-8.2L225.32-8.2Q225.82-10.75 226.07-11.5L226.07-11.5Q226.47-13.15 227.67-19.75L227.67-19.75 227.97-21.4Q229.27-29.1 229.77-31.1L229.77-31.1Q230.02-32.3 230.67-34.65L230.67-34.65Q230.92-35.65 231.37-36.65L231.37-36.65Q231.82-37.5 232.12-37.5L232.12-37.5Q232.92-37.5 233.27-37L233.27-37Q233.52-36.55 234.04-32.05 234.57-27.55 234.97-22.95L234.97-22.95 235.62-14.65Q235.62-12.5 235.92-8.15L235.92-8.15Q236.22-3.75 236.22-1.6L236.22-1.6 236.22-1.4Q236.22-0.85 236.07-0.4L236.07-0.4Q235.87 0 235.12 0L235.12 0ZM233.12-9.65Q234.12-9.65 234.12-10.15L234.12-10.15Q234.12-13.25 233.77-18.63 233.42-24 233.02-28.1L233.02-28.1Q232.92-29.85 232.62-31.95L232.62-31.95 232.42-33.9Q232.42-33.85 232.32-34.45L232.32-34.45 232.22-35.05Q231.82-33.95 231.44-32 231.07-30.05 230.67-27.4L230.67-27.4Q229.47-19.95 228.62-16.2L228.62-16.2 228.17-14.5Q227.42-12 227.42-10.7L227.42-10.7 227.42-10.4Q229.62-9.7 232.47-9.7L232.47-9.7 232.77-9.7Q232.92-9.65 233.12-9.65L233.12-9.65ZM244.12 0.65Q243.42 0.65 243.27-0.5L243.27-0.5Q243.37-0.8 243.37-2.15L243.37-2.15Q243.37-6.75 243.52-15.8L243.52-15.8Q243.67-24.8 243.67-28.8L243.67-28.8 243.77-30.6 243.92-32.1Q243.92-32.45 244.27-32.45L244.27-32.45Q244.52-32.45 244.97-32.3L244.97-32.3 245.12-32.25Q245.12-31.15 245.07-30.25L245.07-30.25 245.07-28.3 245.07-22.85Q245.12-20.45 245.12-17.4L245.12-17.4Q245.07-17.15 245.07-16.3L245.07-16.3 245.02-15.25Q244.97-14.25 244.97-13.2L244.97-13.2Q244.97-12.05 245.02-11.1L245.02-11.1 245.07-8.95 244.92-8.55 244.97-8.6Q244.97-8.45 244.92-8.4L244.92-8.4 244.92-8.2Q244.92-7.8 245.07-7.5L245.07-7.5 244.92-2.7 244.92-2.4Q244.92-1.55 244.97-1.4L244.97-1.4Q244.97-1.15 245.22-1.15L245.22-1.15 247.82-1.05Q248.97-1.05 249.39-1.03 249.82-1 249.92-1L249.92-1 250.07-1Q250.32-1 250.57-0.73 250.82-0.45 250.82-0.15L250.82-0.15Q250.82 0.45 250.02 0.5L250.02 0.5Q249.17 0.45 245.87 0.45L245.87 0.45 245.97 0.5Q245.47 0.5 245.02 0.55L245.02 0.55Q244.62 0.65 244.12 0.65L244.12 0.65ZM265.51 0.45Q264.76 0.45 264.56 0.28 264.36 0.1 264.26-0.65L264.26-0.65Q263.81-4.3 263.71-5.2L263.71-5.2 263.46-7.2Q262.36-7.45 260.96-7.45L260.96-7.45 259.16-7.55Q257.96-7.7 257.41-7.7L257.41-7.7Q257.11-7.7 257.06-7.45L257.06-7.45Q257.06-7.3 257.01-7.3L257.01-7.3 256.91-6.3Q256.86-5.4 256.36-2.7L256.36-2.7Q256.11-1.35 255.76-0.6L255.76-0.6Q255.36 0.25 255.01 0.25L255.01 0.25Q254.71 0.25 254.36-0.03 254.01-0.3 254.01-0.6L254.01-0.6 254.06-0.75 254.11-0.9Q255.01-4.45 255.61-7.95L255.61-7.95 256.21-11.05 256.81-14.85Q256.81-14.85 257.36-18.15L257.36-18.15Q257.61-19.5 258.26-22.5L258.26-22.5Q258.96-25.9 259.11-27.15L259.11-27.15Q259.16-27.3 259.31-29L259.31-29Q259.51-30.9 259.66-31.8L259.66-31.8Q259.81-33.1 259.96-33.3L259.96-33.3 260.31-33.3Q260.46-33.25 260.66-33.25L260.66-33.25Q261.26-33.25 261.56-33.55L261.56-33.55Q261.91-33.55 262.19-33.33 262.46-33.1 262.46-32.8L262.46-32.8Q262.46-30.4 262.81-27.3L262.81-27.3Q263.01-25.7 263.11-24.65L263.11-24.65Q263.66-18.2 265.91-0.45L265.91-0.45 265.91-0.3Q265.91 0.2 265.51 0.45L265.51 0.45ZM262.71-8.55L263.21-8.55Q262.71-15.75 261.31-29.8L261.31-29.8 258.61-16.45Q257.46-10.7 257.46-9.2L257.46-9.2Q257.46-8.95 259.36-8.75 261.26-8.55 262.71-8.55L262.71-8.55ZM291.06 2.6Q290.06 2.6 290.06-0.6L290.06-0.6 290.06-3.9Q290.06-11.1 289.76-15.15L289.76-15.15 289.61-17Q289.41-18.25 289.41-19.2L289.41-19.2Q289.41-20.9 289.51-22.3L289.51-22.3 289.61-25.4Q289.61-26.95 289.41-27.75L289.41-27.75Q288.41-27.05 283.36-6.7L283.36-6.7 283.31-5.95Q283.16-4.7 282.91-3.95L282.91-3.95Q282.76-3.4 282.49-3.1 282.21-2.8 281.86-2.8L281.86-2.8Q281.06-2.8 280.71-3.2 280.36-3.6 280.36-4.45L280.36-4.45Q280.36-5.8 279.09-11.45 277.81-17.1 276.34-22.3 274.86-27.5 274.31-28.05L274.31-28.05Q274.26-26.3 273.91-19.8L273.91-19.8Q273.21-8.3 273.21-1.7L273.21-1.7 273.26 0.3Q273.06 0.95 272.21 0.95L272.21 0.95Q272.06 0.95 271.71 0.68 271.36 0.4 271.36 0.25L271.36 0.25Q271.36-4.25 272.16-15.55L272.16-15.55Q272.91-26.05 272.91-31.3L272.91-31.3Q272.91-31.55 272.81-31.8L272.81-31.8Q272.66-32.1 272.66-32.25L272.66-32.25Q272.66-33 273.96-33L273.96-33Q274.81-33 274.96-32.25L274.96-32.25Q275.16-31.25 275.16-30.75L275.16-30.75 275.21-30.15Q275.46-28.85 276.66-26.15L276.66-26.15Q277.61-24 278.11-22.4L278.11-22.4Q278.41-21.2 278.66-20.45L278.66-20.45Q279.46-17.55 279.71-16.15L279.71-16.15 280.36-14.85Q280.51-14.1 280.96-12.4L280.96-12.4Q281.41-10.5 281.61-9.3 281.81-8.1 281.81-7L281.81-7Q282.36-7.85 284.94-17.23 287.51-26.6 287.96-29.2L287.96-29.2Q288.01-29.3 288.04-29.48 288.06-29.65 288.11-29.95L288.11-29.95Q288.21-30.6 288.56-31.9L288.56-31.9Q288.96-32.9 289.76-32.9L289.76-32.9Q290.11-32.9 290.56-32.6 291.01-32.3 291.01-32L291.01-32Q291.01-11.15 291.66-9.95L291.66-9.95 291.66-7.35Q291.61-6.2 291.61-4.7L291.61-4.7Q291.61-1.5 291.96 0.1L291.96 0.1Q292.01 0.15 292.04 0.25 292.06 0.35 292.11 0.5L292.11 0.5Q292.16 0.7 292.16 0.95L292.16 0.95Q292.16 1.5 291.84 2.05 291.51 2.6 291.06 2.6L291.06 2.6ZM289.41-27.95L289.41-28.05 289.36-28.05 289.26-28 289.41-27.95Z" opacity="1" transform="matrix(1,0,0,1,0,0)" fill="#ffffff" class="wordmark-text-0" data-fill-palette-color="primary" id="text-0"></path></svg></g></svg></g></svg></g></svg></g><g transform="matrix(1,0,0,1,77.21763576503206,0)"><svg viewBox="0 0 37.564728469935886 37.564728469935886" height="37.564728469935886" width="37.564728469935886"><g><svg xmlns="http://www.w3.org/2000/svg" xmlns:xlink="http://www.w3.org/1999/xlink" version="1.1" x="0" y="0" viewBox="16 16 480 480" style="enable-background:new 0 0 512 512;" xml:space="preserve" height="37.564728469935886" width="37.564728469935886" class="icon-icon-0" data-fill-palette-color="accent" id="icon-0"><g fill="#636365" data-fill-palette-color="accent"><g fill="#636365" data-fill-palette-color="accent"><g fill="#636365" data-fill-palette-color="accent"><path d="M396 496H116c-5.523 0-10-4.478-10-10V26c0-5.523 4.477-10 10-10h280c5.522 0 10 4.477 10 10v460C406 491.522 401.522 496 396 496zM126 476h260V36H126V476z" fill="#ffffff" data-fill-palette-color="accent"></path></g><g fill="#636365" data-fill-palette-color="accent"><path d="M356 456H156c-5.523 0-10-4.478-10-10V66c0-5.523 4.477-10 10-10h200c5.522 0 10 4.477 10 10v380C366 451.522 361.522 456 356 456zM166 436h180V76H166V436z" fill="#ffffff" data-fill-palette-color="accent"></path></g><g fill="#636365" data-fill-palette-color="accent"><path d="M446 86h-50c-5.522 0-10-4.477-10-10V36c0-5.523 4.478-10 10-10h50c5.522 0 10 4.477 10 10v40C456 81.523 451.522 86 446 86zM406 66h30V46h-30V66z" fill="#ffffff" data-fill-palette-color="accent"></path></g><g fill="#636365" data-fill-palette-color="accent"><path d="M446 166h-50c-5.522 0-10-4.477-10-10v-40c0-5.523 4.478-10 10-10h50c5.522 0 10 4.477 10 10v40C456 161.523 451.522 166 446 166zM406 146h30v-20h-30V146z" fill="#ffffff" data-fill-palette-color="accent"></path></g><g fill="#636365" data-fill-palette-color="accent"><path d="M446 246h-50c-5.522 0-10-4.477-10-10v-40c0-5.523 4.478-10 10-10h50c5.522 0 10 4.477 10 10v40C456 241.523 451.522 246 446 246zM406 226h30v-20h-30V226z" fill="#ffffff" data-fill-palette-color="accent"></path></g><g fill="#636365" data-fill-palette-color="accent"><path d="M446 326h-50c-5.522 0-10-4.478-10-10v-40c0-5.522 4.478-10 10-10h50c5.522 0 10 4.478 10 10v40C456 321.522 451.522 326 446 326zM406 306h30v-20h-30V306z" fill="#ffffff" data-fill-palette-color="accent"></path></g><g fill="#636365" data-fill-palette-color="accent"><path d="M446 406h-50c-5.522 0-10-4.478-10-10v-40c0-5.522 4.478-10 10-10h50c5.522 0 10 4.478 10 10v40C456 401.522 451.522 406 446 406zM406 386h30v-20h-30V386z" fill="#ffffff" data-fill-palette-color="accent"></path></g><g fill="#636365" data-fill-palette-color="accent"><path d="M446 486h-50c-5.522 0-10-4.478-10-10v-40c0-5.522 4.478-10 10-10h50c5.522 0 10 4.478 10 10v40C456 481.522 451.522 486 446 486zM406 466h30v-20h-30V466z" fill="#ffffff" data-fill-palette-color="accent"></path></g><g fill="#636365" data-fill-palette-color="accent"><path d="M486 66h-40c-5.522 0-10-4.477-10-10s4.478-10 10-10h40c5.522 0 10 4.477 10 10S491.522 66 486 66z" fill="#ffffff" data-fill-palette-color="accent"></path></g><g fill="#636365" data-fill-palette-color="accent"><path d="M486 146h-40c-5.522 0-10-4.477-10-10s4.478-10 10-10h40c5.522 0 10 4.477 10 10S491.522 146 486 146z" fill="#ffffff" data-fill-palette-color="accent"></path></g><g fill="#636365" data-fill-palette-color="accent"><path d="M486 226h-40c-5.522 0-10-4.477-10-10s4.478-10 10-10h40c5.522 0 10 4.477 10 10S491.522 226 486 226z" fill="#ffffff" data-fill-palette-color="accent"></path></g><g fill="#636365" data-fill-palette-color="accent"><path d="M486 306h-40c-5.522 0-10-4.478-10-10s4.478-10 10-10h40c5.522 0 10 4.478 10 10S491.522 306 486 306z" fill="#ffffff" data-fill-palette-color="accent"></path></g><g fill="#636365" data-fill-palette-color="accent"><path d="M486 386h-40c-5.522 0-10-4.478-10-10s4.478-10 10-10h40c5.522 0 10 4.478 10 10S491.522 386 486 386z" fill="#ffffff" data-fill-palette-color="accent"></path></g><g fill="#636365" data-fill-palette-color="accent"><path d="M486 466h-40c-5.522 0-10-4.478-10-10s4.478-10 10-10h40c5.522 0 10 4.478 10 10S491.522 466 486 466z" fill="#ffffff" data-fill-palette-color="accent"></path></g><g fill="#636365" data-fill-palette-color="accent"><path d="M116 86H66c-5.523 0-10-4.477-10-10V36c0-5.523 4.477-10 10-10h50c5.523 0 10 4.477 10 10v40C126 81.523 121.523 86 116 86zM76 66h30V46H76V66z" fill="#ffffff" data-fill-palette-color="accent"></path></g><g fill="#636365" data-fill-palette-color="accent"><path d="M116 166H66c-5.523 0-10-4.477-10-10v-40c0-5.523 4.477-10 10-10h50c5.523 0 10 4.477 10 10v40C126 161.523 121.523 166 116 166zM76 146h30v-20H76V146z" fill="#ffffff" data-fill-palette-color="accent"></path></g><g fill="#636365" data-fill-palette-color="accent"><path d="M116 246H66c-5.523 0-10-4.477-10-10v-40c0-5.523 4.477-10 10-10h50c5.523 0 10 4.477 10 10v40C126 241.523 121.523 246 116 246zM76 226h30v-20H76V226z" fill="#ffffff" data-fill-palette-color="accent"></path></g><g fill="#636365" data-fill-palette-color="accent"><path d="M116 326H66c-5.523 0-10-4.478-10-10v-40c0-5.522 4.477-10 10-10h50c5.523 0 10 4.478 10 10v40C126 321.522 121.523 326 116 326zM76 306h30v-20H76V306z" fill="#ffffff" data-fill-palette-color="accent"></path></g><g fill="#636365" data-fill-palette-color="accent"><path d="M116 406H66c-5.523 0-10-4.478-10-10v-40c0-5.522 4.477-10 10-10h50c5.523 0 10 4.478 10 10v40C126 401.522 121.523 406 116 406zM76 386h30v-20H76V386z" fill="#ffffff" data-fill-palette-color="accent"></path></g><g fill="#636365" data-fill-palette-color="accent"><path d="M116 486H66c-5.523 0-10-4.478-10-10v-40c0-5.522 4.477-10 10-10h50c5.523 0 10 4.478 10 10v40C126 481.522 121.523 486 116 486zM76 466h30v-20H76V466z" fill="#ffffff" data-fill-palette-color="accent"></path></g><g fill="#636365" data-fill-palette-color="accent"><path d="M66 66H26c-5.523 0-10-4.477-10-10s4.477-10 10-10h40c5.523 0 10 4.477 10 10S71.523 66 66 66z" fill="#ffffff" data-fill-palette-color="accent"></path></g><g fill="#636365" data-fill-palette-color="accent"><path d="M66 146H26c-5.523 0-10-4.477-10-10s4.477-10 10-10h40c5.523 0 10 4.477 10 10S71.523 146 66 146z" fill="#ffffff" data-fill-palette-color="accent"></path></g><g fill="#636365" data-fill-palette-color="accent"><path d="M66 226H26c-5.523 0-10-4.477-10-10s4.477-10 10-10h40c5.523 0 10 4.477 10 10S71.523 226 66 226z" fill="#ffffff" data-fill-palette-color="accent"></path></g><g fill="#636365" data-fill-palette-color="accent"><path d="M66 306H26c-5.523 0-10-4.478-10-10s4.477-10 10-10h40c5.523 0 10 4.478 10 10S71.523 306 66 306z" fill="#ffffff" data-fill-palette-color="accent"></path></g><g fill="#636365" data-fill-palette-color="accent"><path d="M66 386H26c-5.523 0-10-4.478-10-10s4.477-10 10-10h40c5.523 0 10 4.478 10 10S71.523 386 66 386z" fill="#ffffff" data-fill-palette-color="accent"></path></g><g fill="#636365" data-fill-palette-color="accent"><path d="M66 466H26c-5.523 0-10-4.478-10-10s4.477-10 10-10h40c5.523 0 10 4.478 10 10S71.523 466 66 466z" fill="#ffffff" data-fill-palette-color="accent"></path></g><g fill="#636365" data-fill-palette-color="accent"><path d="M316 166H196c-5.523 0-10-4.477-10-10v-50c0-5.523 4.477-10 10-10h120c5.522 0 10 4.477 10 10v50C326 161.523 321.522 166 316 166zM206 146h100v-30H206V146z" fill="#ffffff" data-fill-palette-color="accent"></path></g><g fill="#636365" data-fill-palette-color="accent"><path d="M316 246H196c-5.523 0-10-4.477-10-10v-40c0-5.523 4.477-10 10-10h120c5.522 0 10 4.477 10 10v40C326 241.523 321.522 246 316 246zM206 226h100v-20H206V226z" fill="#ffffff" data-fill-palette-color="accent"></path></g><g fill="#636365" data-fill-palette-color="accent"><path d="M316 326H196c-5.523 0-10-4.478-10-10v-40c0-5.522 4.477-10 10-10h120c5.522 0 10 4.478 10 10v40C326 321.522 321.522 326 316 326zM206 306h100v-20H206V306z" fill="#ffffff" data-fill-palette-color="accent"></path></g><g fill="#636365" data-fill-palette-color="accent"><path d="M316 416H196c-5.523 0-10-4.478-10-10v-50c0-5.522 4.477-10 10-10h120c5.522 0 10 4.478 10 10v50C326 411.522 321.522 416 316 416zM206 396h100v-30H206V396z" fill="#ffffff" data-fill-palette-color="accent"></path></g></g></g></svg></g></svg></g><g></g></svg></g></svg></g></svg></g></svg></g><defs></defs></svg><rect width="320" height="360" fill="none" stroke="none" visibility="hidden"></rect></g></svg></g></svg>